<svg width="13" height="16" viewBox="0 0 13 16" fill="none" xmlns="http://www.w3.org/2000/svg">
<path d="M7.08828 4.61903L8.46826 4.28269L10.9046 5.84563V15.3348H12.1135V16C8.07565 16 4.03782 16 0 16V15.3348H1.2091V0.633932L3.8113 0L7.08828 2.10227V4.61903ZM9.34184 12.5467H10.2444V11.6394H9.34184V10.6795H10.2444V9.77217H9.34184V8.81232H10.2444V7.90497H9.34184V6.94511H10.2444V6.20511L8.6133 5.15898V15.3348H10.2444V13.5066H9.34184V12.5467ZM5.11021 10.4501H6.42788V9.54294H5.11021V8.58288H6.42788V7.67574H5.11021V6.71567H6.42788V5.80854H5.11021V4.84847H6.42788V3.94113H5.11021V2.98127H6.42788V2.46175L4.02199 0.918388V15.3348H6.42788V11.4101H5.11021V10.4501ZM7.95311 15.3348V5.08562L7.14496 5.28256V15.3348H7.95311ZM3.36159 15.3348V0.786892L1.86929 1.15054V15.3348H3.36159Z" fill="#B7BDCD"/>
</svg>
