<svg width="20" height="19" viewBox="0 0 20 19" fill="none" xmlns="http://www.w3.org/2000/svg">
<path fill-rule="evenodd" clip-rule="evenodd" d="M9.61897 18.7296C4.27703 18.7296 0.986707 14.9701 0.986707 10.1957C0.963907 7.66331 1.97006 5.23019 3.77472 3.45355C5.57939 1.67692 8.02795 0.708967 10.5596 0.771398C15.4324 0.771398 19.0688 3.76443 19.0688 8.48933C19.0688 12.7931 16.7934 14.5002 14.5173 14.5002C13.5408 14.5513 12.6137 14.068 12.0964 13.2382C11.2691 14.008 10.1838 14.4405 9.0538 14.4506C6.33251 14.4506 4.95058 12.5213 4.95058 10.1926C4.90428 8.75063 5.45315 7.35313 6.46836 6.3281C7.48358 5.30307 8.87573 4.74078 10.3181 4.7732C11.1131 4.74828 11.8947 4.9828 12.5446 5.44133L12.6437 5.02095H14.9934L13.8321 10.4628C13.6092 11.5513 13.8569 12.4168 14.9206 12.4168C16.2314 12.4168 16.9986 11.3283 16.9986 8.43436C16.9986 4.57578 13.956 2.76959 10.5426 2.76959C8.558 2.69851 6.63386 3.45918 5.23436 4.86808C3.83487 6.27698 3.08711 8.20618 3.17148 10.1902C3.17148 14.0984 5.6698 16.6462 9.62748 16.6462C11.1384 16.6578 12.6305 16.3102 13.9808 15.632L14.7968 17.6357C13.1595 18.337 11.4 18.7087 9.61897 18.7296ZM9.44555 12.1249C10.1168 12.1509 10.7694 11.9004 11.251 11.432L12.0422 7.77086C11.5919 7.31841 10.9772 7.06832 10.339 7.07795C9.5716 7.07084 8.83504 7.3794 8.30186 7.93131C7.76869 8.48323 7.48575 9.23001 7.51935 9.99667C7.51703 11.2841 8.13561 12.1249 9.44632 12.1249H9.44555Z" fill="#C1C7D0"/>
</svg>
