<svg width="16" height="12" viewBox="0 0 16 12" fill="none" xmlns="http://www.w3.org/2000/svg">
<path d="M12 5.6C13.325 5.6 14.4 4.525 14.4 3.2C14.4 1.875 13.325 0.8 12 0.8C10.675 0.8 9.6 1.875 9.6 3.2C9.6 4.525 10.675 5.6 12 5.6ZM12 2C12.6625 2 13.2 2.5375 13.2 3.2C13.2 3.8625 12.6625 4.4 12 4.4C11.3375 4.4 10.8 3.8625 10.8 3.2C10.8 2.5375 11.3375 2 12 2ZM6.8025 6.1C6.505 6.1 6.205 6.1425 5.915 6.2325C5.56 6.34 5.1875 6.4 4.7975 6.4C4.4075 6.4 4.035 6.34 3.68 6.2325C3.39 6.145 3.09 6.1 2.7925 6.1C1.885 6.1 1.0025 6.505 0.485 7.2725C0.18 7.7325 0 8.285 0 8.88V10C0 10.6625 0.5375 11.2 1.2 11.2H8.4C9.0625 11.2 9.6 10.6625 9.6 10V8.88C9.6 8.285 9.42 7.7325 9.11 7.2725C8.5925 6.505 7.71 6.1 6.8025 6.1ZM8.4 10H1.2V8.88C1.2 8.1575 1.66 7.54 2.3025 7.3025C2.56 7.2075 2.8425 7.21 3.1 7.3025C3.6525 7.5 4.225 7.6 4.8 7.6C5.375 7.6 5.945 7.5 6.5025 7.3025C6.76 7.21 7.0425 7.2075 7.3 7.3025C7.9425 7.5375 8.4025 8.1575 8.4025 8.88V10H8.4ZM4.8 5.6C6.3475 5.6 7.6 4.3475 7.6 2.8C7.6 1.2525 6.3475 0 4.8 0C3.2525 0 2 1.2525 2 2.8C2 4.3475 3.2525 5.6 4.8 5.6ZM4.8 1.2C5.6825 1.2 6.4 1.9175 6.4 2.8C6.4 3.6825 5.6825 4.4 4.8 4.4C3.9175 4.4 3.2 3.6825 3.2 2.8C3.2 1.9175 3.9175 1.2 4.8 1.2ZM15.5925 7.1275C15.16 6.4875 14.425 6.15 13.67 6.15C12.975 6.15 12.8 6.4 12 6.4C11.2 6.4 11.025 6.15 10.33 6.15C9.9975 6.15 9.675 6.225 9.375 6.3525C9.52 6.5 9.6575 6.6525 9.775 6.825C9.8925 7 9.99 7.185 10.075 7.375C10.1575 7.3575 10.2425 7.3475 10.33 7.3475C10.76 7.3475 11.07 7.5975 12 7.5975C12.935 7.5975 13.2375 7.3475 13.67 7.3475C14.0625 7.3475 14.4075 7.515 14.5975 7.795C14.73 7.9925 14.8 8.2225 14.8 8.4625V9.2H10.4V10C10.4 10.1375 10.385 10.27 10.36 10.4H15C15.5525 10.4 16 9.9525 16 9.4V8.4675C16 7.97 15.85 7.51 15.5925 7.1275Z" fill="#B7BDCD"/>
</svg>
