<svg width="18" height="16" viewBox="0 0 18 16" fill="none" xmlns="http://www.w3.org/2000/svg">
<path d="M16.0571 3.96096C16.0571 4.32015 16.0571 4.67935 16.0571 5.03854C16.0571 5.8961 16.0571 6.75366 16.0571 7.6131C16.0571 8.64931 16.0571 9.68365 16.0571 10.7199C16.0571 11.6131 16.0571 12.5064 16.0571 13.4016C16.0571 13.8247 16.059 14.2498 16.0571 14.6729C16.0571 14.703 16.0552 14.735 16.0533 14.765C16.0609 14.7067 16.0684 14.6484 16.0778 14.5901C16.0703 14.6503 16.0552 14.7049 16.0326 14.7613C16.0552 14.7086 16.0778 14.656 16.0985 14.6033C16.074 14.6579 16.0458 14.7067 16.012 14.7538C16.0458 14.7086 16.0797 14.6654 16.1154 14.6202C16.0797 14.6654 16.0383 14.7049 15.9932 14.7425C16.0383 14.7086 16.0815 14.6748 16.1267 14.639C16.0797 14.6748 16.0308 14.703 15.9762 14.7256C16.0289 14.703 16.0815 14.6804 16.1342 14.6597C16.0778 14.6823 16.0214 14.6955 15.9631 14.7049C16.0214 14.6973 16.0797 14.6898 16.138 14.6804C15.9875 14.6955 15.8314 14.6842 15.681 14.6842C15.3255 14.6842 14.9682 14.6842 14.6128 14.6842C14.0843 14.6842 13.5578 14.6842 13.0293 14.6842C12.3805 14.6842 11.7336 14.6842 11.0848 14.6842C10.3739 14.6842 9.66303 14.6842 8.95216 14.6842C8.23565 14.6842 7.51726 14.6842 6.80075 14.6842C6.13501 14.6842 5.46928 14.6842 4.80354 14.6842C4.23936 14.6842 3.67518 14.6842 3.111 14.6842C2.70666 14.6842 2.30421 14.6842 1.89988 14.6842C1.7137 14.6842 1.52564 14.6842 1.33946 14.6842C1.30749 14.6842 1.27364 14.6823 1.24167 14.6804C1.29997 14.6879 1.35827 14.6955 1.41657 14.7049C1.35639 14.6973 1.30185 14.6823 1.24543 14.6597C1.29809 14.6823 1.35075 14.7049 1.4034 14.7256C1.34887 14.7011 1.29997 14.6729 1.25295 14.639C1.29809 14.6729 1.34134 14.7067 1.38648 14.7425C1.34134 14.7067 1.30185 14.6654 1.26424 14.6202C1.29809 14.6654 1.33194 14.7086 1.36767 14.7538C1.33194 14.7067 1.30373 14.6579 1.28116 14.6033C1.30373 14.656 1.3263 14.7086 1.34699 14.7613C1.32442 14.7049 1.31125 14.6484 1.30185 14.5901C1.30937 14.6484 1.3169 14.7067 1.3263 14.765C1.31501 14.6484 1.32254 14.53 1.32254 14.4134C1.32254 14.1557 1.32254 13.8962 1.32254 13.6386C1.32254 12.7791 1.32254 11.9216 1.32254 11.0621C1.32254 10.024 1.32254 8.98594 1.32254 7.94784C1.32254 7.05268 1.32254 6.15751 1.32254 5.26234C1.32254 4.83356 1.32066 4.40478 1.32254 3.97788C1.32254 3.94779 1.32442 3.91582 1.3263 3.88573C1.31878 3.94403 1.31125 4.00233 1.30185 4.06063C1.30937 4.00045 1.32442 3.94591 1.34699 3.88949C1.32442 3.94215 1.30185 3.99481 1.28116 4.04746C1.30561 3.99293 1.33382 3.94403 1.36767 3.89702C1.33382 3.94215 1.29997 3.9854 1.26424 4.03054C1.29997 3.9854 1.34134 3.94591 1.38648 3.9083C1.34134 3.94215 1.29809 3.976 1.25295 4.01173C1.29997 3.976 1.34887 3.94779 1.4034 3.92523C1.35075 3.94779 1.29809 3.97036 1.24543 3.99105C1.30185 3.96848 1.35827 3.95531 1.41657 3.94591C1.35827 3.95343 1.29997 3.96096 1.24167 3.97036C1.39212 3.95531 1.54821 3.9666 1.69866 3.9666C2.05409 3.9666 2.41141 3.9666 2.76684 3.9666C3.29529 3.9666 3.82186 3.9666 4.35032 3.9666C4.99913 3.9666 5.64605 3.9666 6.29486 3.9666C7.00573 3.9666 7.7166 3.9666 8.42747 3.9666C9.14398 3.9666 9.86238 3.9666 10.5789 3.9666C11.2446 3.9666 11.9104 3.9666 12.5761 3.9666C13.1403 3.9666 13.7045 3.9666 14.2686 3.9666C14.673 3.9666 15.0754 3.9666 15.4798 3.9666C15.6659 3.9666 15.854 3.9666 16.0402 3.9666C16.0721 3.9666 16.106 3.96848 16.138 3.97036C16.0797 3.96284 16.0214 3.95531 15.9631 3.94591C16.0232 3.95343 16.0778 3.96848 16.1342 3.99105C16.0815 3.96848 16.0289 3.94591 15.9762 3.92523C16.0308 3.94967 16.0797 3.97788 16.1267 4.01173C16.0815 3.97788 16.0383 3.94403 15.9932 3.9083C16.0383 3.94403 16.0778 3.9854 16.1154 4.03054C16.0815 3.9854 16.0477 3.94215 16.012 3.89702C16.0477 3.94403 16.0759 3.99293 16.0985 4.04746C16.0759 3.99481 16.0533 3.94215 16.0326 3.88949C16.0552 3.94591 16.0684 4.00233 16.0778 4.06063C16.0703 4.00233 16.0627 3.94403 16.0533 3.88573C16.0552 3.91018 16.0552 3.93463 16.0571 3.96096C16.0646 4.30511 16.3542 4.63609 16.7153 4.61917C17.067 4.60412 17.381 4.32956 17.3735 3.96096C17.3585 3.23692 16.7811 2.65581 16.0552 2.64453C16.0214 2.64453 15.9894 2.64453 15.9555 2.64453C15.7393 2.64453 15.523 2.64453 15.3067 2.64453C14.9231 2.64453 14.5376 2.64453 14.1539 2.64453C13.6462 2.64453 13.1365 2.64453 12.6287 2.64453C12.0326 2.64453 11.4346 2.64453 10.8384 2.64453C10.1952 2.64453 9.55396 2.64453 8.91079 2.64453C8.26762 2.64453 7.62257 2.64453 6.9794 2.64453C6.36821 2.64453 5.75701 2.64453 5.14581 2.64453C4.6136 2.64453 4.08139 2.64453 3.54918 2.64453C3.13168 2.64453 2.71419 2.64453 2.29669 2.64453C2.03717 2.64453 1.77764 2.64453 1.51812 2.64453C1.45982 2.64453 1.4034 2.64453 1.3451 2.64453C0.99155 2.64641 0.664325 2.77241 0.404801 3.01313C0.133993 3.26325 0.00235074 3.62997 0.00047013 3.99293C0.00047013 4.06815 0.00047013 4.14526 0.00047013 4.22048C0.00047013 4.55335 0.00047013 4.8881 0.00047013 5.22096C0.00047013 5.73625 0.00047013 6.25342 0.00047013 6.7687C0.00047013 7.3893 0.00047013 8.00802 0.00047013 8.62862C0.00047013 9.27367 0.00047013 9.91684 0.00047013 10.5619C0.00047013 11.1599 0.00047013 11.758 0.00047013 12.356C0.00047013 12.8261 0.00047013 13.2963 0.00047013 13.7664C0.00047013 14.0373 0.00047013 14.3062 0.00047013 14.577C0.00047013 14.6296 -0.00141043 14.6823 0.00235078 14.735C0.0324405 15.1675 0.237427 15.5192 0.585339 15.7731C0.794087 15.9254 1.06489 15.995 1.31878 15.9987C1.44102 16.0006 1.56137 15.9987 1.68361 15.9987C1.99203 15.9987 2.30045 15.9987 2.61075 15.9987C3.06398 15.9987 3.51533 15.9987 3.96855 15.9987C4.52897 15.9987 5.08939 15.9987 5.64982 15.9987C6.2723 15.9987 6.89478 15.9987 7.51726 15.9987C8.16795 15.9987 8.81676 15.9987 9.46745 15.9987C10.1012 15.9987 10.735 15.9987 11.3687 15.9987C11.9423 15.9987 12.5159 15.9987 13.0914 15.9987C13.5709 15.9987 14.0505 15.9987 14.5282 15.9987C14.8686 15.9987 15.2071 15.9987 15.5475 15.9987C15.7092 15.9987 15.8728 15.9987 16.0345 15.9987C16.3937 15.9968 16.7586 15.8614 17.0068 15.5944C17.2513 15.3311 17.3754 15.002 17.3754 14.6447C17.3754 14.4247 17.3754 14.2046 17.3754 13.9865C17.3754 13.5483 17.3754 13.1101 17.3754 12.6719C17.3754 12.0946 17.3754 11.5191 17.3754 10.9418C17.3754 10.2986 17.3754 9.65355 17.3754 9.01039C17.3754 8.3785 17.3754 7.74662 17.3754 7.11474C17.3754 6.575 17.3754 6.03527 17.3754 5.49365C17.3754 5.11565 17.3754 4.73953 17.3754 4.36153C17.3754 4.22612 17.3754 4.09072 17.3754 3.9572C17.3754 3.61304 17.0726 3.28394 16.7172 3.29898C16.358 3.31967 16.0571 3.59236 16.0571 3.96096Z" fill="#B7BDCD"/>
<path d="M9.45236 6.77054C9.45236 7.31967 9.45236 7.87069 9.45236 8.41983C9.45236 8.50258 9.45612 8.5872 9.45048 8.66995C9.458 8.61165 9.46552 8.55335 9.47493 8.49505C9.47305 8.5101 9.46928 8.52514 9.46176 8.54019C9.48433 8.48753 9.5069 8.43487 9.52758 8.38222C9.52194 8.39726 9.51442 8.41043 9.50502 8.42171C9.53887 8.37657 9.57272 8.33332 9.60845 8.28819C9.59905 8.29947 9.58776 8.31075 9.57648 8.32016C9.62161 8.28631 9.66487 8.25246 9.71 8.21672C9.69872 8.22613 9.68555 8.23365 9.67051 8.23929C9.72317 8.21672 9.77582 8.19416 9.82848 8.17347C9.81344 8.17911 9.79839 8.18287 9.78335 8.18663C9.84164 8.17911 9.89994 8.17159 9.95824 8.16219C9.67239 8.18099 9.3809 8.16407 9.09504 8.16407C8.6437 8.16407 8.19423 8.16407 7.74289 8.16407C7.63569 8.16407 7.52662 8.16971 7.41942 8.16219C7.47772 8.16971 7.53602 8.17723 7.59432 8.18663C7.57927 8.18475 7.56423 8.18099 7.54918 8.17347C7.60184 8.19604 7.6545 8.2186 7.70716 8.23929C7.69211 8.23365 7.67895 8.22613 7.66766 8.21672C7.7128 8.25057 7.75605 8.28443 7.80119 8.32016C7.7899 8.31075 7.77862 8.29947 7.76922 8.28819C7.80307 8.33332 7.83692 8.37657 7.87265 8.42171C7.86325 8.41043 7.85572 8.39726 7.85008 8.38222C7.87265 8.43487 7.89522 8.48753 7.9159 8.54019C7.91026 8.52514 7.9065 8.5101 7.90274 8.49505C7.91026 8.55335 7.91778 8.61165 7.92719 8.66995C7.91214 8.45556 7.92531 8.23553 7.92531 8.02114C7.92531 7.67887 7.92531 7.3366 7.92531 6.99621C7.92531 6.91346 7.92154 6.82884 7.92719 6.74609C7.91966 6.80439 7.91214 6.86269 7.90274 6.92099C7.90462 6.90594 7.90838 6.8909 7.9159 6.87585C7.89334 6.92851 7.87077 6.98116 7.85008 7.03382C7.85572 7.01878 7.86325 7.00561 7.87265 6.99433C7.8388 7.03946 7.80495 7.08272 7.76922 7.12785C7.77862 7.11657 7.7899 7.10528 7.80119 7.09588C7.75605 7.12973 7.7128 7.16358 7.66766 7.19931C7.67895 7.18991 7.69211 7.18239 7.70716 7.17675C7.6545 7.19932 7.60184 7.22188 7.54918 7.24257C7.56423 7.23693 7.57927 7.23317 7.59432 7.2294C7.53602 7.23693 7.47772 7.24445 7.41942 7.25385C7.70527 7.23505 7.99677 7.25197 8.28262 7.25197C8.73397 7.25197 9.18343 7.25197 9.63478 7.25197C9.74197 7.25197 9.85105 7.24633 9.95824 7.25385C9.89994 7.24633 9.84164 7.23881 9.78335 7.2294C9.79839 7.23129 9.81344 7.23505 9.82848 7.24257C9.77582 7.22 9.72317 7.19743 9.67051 7.17675C9.68555 7.18239 9.69872 7.18991 9.71 7.19931C9.66487 7.16546 9.62161 7.13161 9.57648 7.09588C9.58776 7.10528 9.59905 7.11657 9.60845 7.12785C9.5746 7.08272 9.54075 7.03946 9.50502 6.99433C9.51442 7.00561 9.52194 7.01878 9.52758 7.03382C9.50502 6.98116 9.48245 6.92851 9.46176 6.87585C9.4674 6.8909 9.47117 6.90594 9.47493 6.92099C9.4674 6.86269 9.45988 6.80439 9.45048 6.74609C9.45048 6.75361 9.45048 6.76301 9.45236 6.77054C9.46364 6.94543 9.51818 7.10905 9.64606 7.23505C9.76078 7.34976 9.94696 7.43439 10.1106 7.42875C10.4472 7.4137 10.7932 7.13914 10.7688 6.77054C10.7537 6.54486 10.6879 6.34364 10.5243 6.18003C10.3663 6.02205 10.1538 5.94119 9.93379 5.93555C9.91123 5.93555 9.88678 5.93555 9.86421 5.93555C9.72317 5.93555 9.58024 5.93555 9.43919 5.93555C8.98973 5.93555 8.54214 5.93555 8.09268 5.93555C7.92342 5.93555 7.75605 5.93555 7.5868 5.93555C7.31975 5.93555 7.06587 5.97316 6.86088 6.1725C6.68975 6.338 6.61076 6.55803 6.607 6.7931C6.607 6.84388 6.607 6.89278 6.607 6.94355C6.607 7.1429 6.607 7.34224 6.607 7.54159C6.607 7.90454 6.60136 8.26562 6.607 8.62858C6.61452 9.11001 6.98124 9.47485 7.46268 9.48425C7.57739 9.48613 7.69211 9.48425 7.80683 9.48425C8.24501 9.48425 8.68131 9.48425 9.11949 9.48425C9.3903 9.48425 9.66111 9.49366 9.93191 9.48425C10.3964 9.46921 10.7519 9.11189 10.7688 8.64738C10.7707 8.61917 10.7688 8.59285 10.7688 8.56464C10.7688 8.39538 10.7688 8.22613 10.7688 8.05875C10.7688 7.6563 10.7688 7.25385 10.7688 6.8514C10.7688 6.82507 10.7688 6.79875 10.7688 6.77242C10.7688 6.42827 10.466 6.09916 10.1106 6.1142C9.75326 6.12925 9.45236 6.40194 9.45236 6.77054Z" fill="#B7BDCD"/>
<path d="M16.057 3.90266C16.057 4.1697 16.057 4.43675 16.057 4.7038C16.057 4.99905 16.074 5.29995 16.0364 5.59332C16.0439 5.53502 16.0514 5.47673 16.0608 5.41843C16.0307 5.62906 15.9762 5.83216 15.8934 6.02962C15.916 5.97697 15.9386 5.92431 15.9593 5.87165C15.8765 6.06348 15.7712 6.24025 15.6452 6.40575C15.679 6.36061 15.7129 6.31736 15.7486 6.27222C15.6264 6.42831 15.4853 6.56748 15.3293 6.6916C15.3744 6.65775 15.4176 6.6239 15.4628 6.58816C15.2973 6.71605 15.1205 6.82136 14.9287 6.90223C14.9813 6.87966 15.034 6.85709 15.0867 6.8364C14.8911 6.91915 14.6861 6.97369 14.4755 7.00378C14.5338 6.99626 14.5921 6.98873 14.6504 6.97933C14.4416 7.00566 14.2329 7.00002 14.0222 7.00002C13.695 7.00002 13.3659 7.00002 13.0387 7.00002C12.2488 7.00002 11.459 7.00002 10.6672 7.00002C10.481 7.00002 10.2949 7.00002 10.1087 7.00002C10.3287 7.22005 10.5469 7.4382 10.7669 7.65823C10.7669 7.50026 10.7669 7.34229 10.7669 7.1862C10.7669 6.98121 10.7913 6.74614 10.7368 6.54679C10.6371 6.18195 10.3005 5.94124 9.92815 5.93371C9.90182 5.93371 9.87549 5.93371 9.84916 5.93371C9.70623 5.93371 9.56143 5.93371 9.4185 5.93371C8.97844 5.93371 8.5365 5.93371 8.09644 5.93371C7.93094 5.93371 7.76357 5.93371 7.59807 5.93371C7.39497 5.93371 7.20315 5.93936 7.01885 6.04843C6.74804 6.2064 6.60511 6.50166 6.60511 6.81008C6.60511 6.90411 6.60511 7.00002 6.60511 7.09405C6.60511 7.28211 6.60511 7.47017 6.60511 7.66011C6.82514 7.44008 7.04329 7.22193 7.26333 7.0019C6.75932 7.0019 6.25532 7.0019 5.75132 7.0019C4.98215 7.0019 4.21298 7.0019 3.44381 7.0019C3.20309 7.0019 2.9605 7.0113 2.72166 6.98121C2.77996 6.98873 2.83826 6.99626 2.89656 7.00566C2.68593 6.97557 2.48282 6.92103 2.28536 6.83829C2.33802 6.86085 2.39067 6.88342 2.44333 6.90411C2.25151 6.82136 2.07473 6.71605 1.90924 6.59005C1.95437 6.6239 1.99762 6.65775 2.04276 6.69348C1.88667 6.57124 1.7475 6.43019 1.62338 6.2741C1.65724 6.31924 1.69109 6.36249 1.72682 6.40763C1.59894 6.24213 1.49362 6.06536 1.41276 5.87353C1.43532 5.92619 1.45789 5.97885 1.47858 6.03151C1.39583 5.83592 1.34129 5.63094 1.3112 5.42031C1.31873 5.47861 1.32625 5.53691 1.33565 5.5952C1.29804 5.29243 1.31496 4.98025 1.31496 4.67747C1.31496 4.49693 1.31496 4.31451 1.31496 4.13397C1.31496 4.03242 1.30932 3.92899 1.32061 3.82743C1.31308 3.88573 1.30556 3.94403 1.29616 4.00233C1.30368 3.95155 1.31685 3.90454 1.33377 3.85752C1.3112 3.91018 1.28864 3.96284 1.26795 4.01549C1.29052 3.96284 1.31873 3.91394 1.35258 3.86881C1.31873 3.91394 1.28487 3.95719 1.24914 4.00233C1.28111 3.96472 1.31308 3.93087 1.35258 3.8989C1.30744 3.93275 1.26419 3.9666 1.21905 4.00233C1.26607 3.9666 1.31308 3.94027 1.36574 3.9177C1.31308 3.94027 1.26043 3.96284 1.20777 3.98352C1.25479 3.9666 1.3018 3.95343 1.35258 3.94591C1.29428 3.95343 1.23598 3.96096 1.17768 3.97036C1.32813 3.95343 1.4861 3.96472 1.63655 3.96472C1.99386 3.96472 2.35118 3.96472 2.71038 3.96472C3.24447 3.96472 3.78044 3.96472 4.31453 3.96472C4.96522 3.96472 5.61779 3.96472 6.26848 3.96472C6.985 3.96472 7.70339 3.96472 8.4199 3.96472C9.14017 3.96472 9.86232 3.96472 10.5826 3.96472C11.2577 3.96472 11.931 3.96472 12.6061 3.96472C13.1722 3.96472 13.7383 3.96472 14.3062 3.96472C14.7124 3.96472 15.1205 3.96472 15.5267 3.96472C15.7148 3.96472 15.9028 3.96284 16.0909 3.96472C16.1229 3.96472 16.1548 3.9666 16.1887 3.97036C16.1304 3.96284 16.0721 3.95531 16.0138 3.94591C16.0646 3.95343 16.1116 3.9666 16.1586 3.98352C16.1059 3.96096 16.0533 3.93839 16.0006 3.9177C16.0533 3.94027 16.1022 3.96848 16.1473 4.00233C16.1022 3.96848 16.0589 3.93463 16.0138 3.8989C16.0514 3.93087 16.0853 3.96284 16.1172 4.00233C16.0834 3.95719 16.0495 3.91394 16.0138 3.86881C16.0495 3.91582 16.0759 3.96284 16.0984 4.01549C16.0759 3.96284 16.0533 3.91018 16.0326 3.85752C16.0495 3.90454 16.0627 3.95155 16.0702 4.00233C16.0627 3.94403 16.0552 3.88573 16.0458 3.82743C16.0552 3.85188 16.0552 3.87633 16.057 3.90266C16.0646 4.24681 16.3542 4.5778 16.7153 4.56087C17.0651 4.54583 17.381 4.27126 17.3735 3.90266C17.3584 3.21059 16.8093 2.6577 16.1153 2.64453C16.0909 2.64453 16.0683 2.64453 16.0439 2.64453C15.8784 2.64453 15.7148 2.64453 15.5493 2.64453C14.8403 2.64453 14.1294 2.64453 13.4204 2.64453C12.3842 2.64453 11.348 2.64453 10.3118 2.64453C9.17402 2.64453 8.03626 2.64453 6.89849 2.64453C5.87544 2.64453 4.85239 2.64453 3.82934 2.64453C3.13915 2.64453 2.45085 2.64453 1.76067 2.64453C1.61022 2.64453 1.45789 2.64453 1.30744 2.64453C1.18144 2.64453 1.05544 2.65581 0.935082 2.68778C0.376542 2.83447 0.00606188 3.35916 0.00230067 3.92711C0.000420062 4.36717 0.00230067 4.80911 0.00230067 5.24917C0.00230067 6.09733 0.350213 6.93984 0.983978 7.51154C1.5632 8.03435 2.29852 8.31832 3.07897 8.31832C3.42124 8.31832 3.7654 8.31832 4.10767 8.31832C5.09499 8.31832 6.0823 8.31832 7.06962 8.31832C7.13544 8.31832 7.20127 8.31832 7.26521 8.31832C7.62064 8.31832 7.92342 8.01743 7.92342 7.66011C7.92342 7.35733 7.90461 7.04891 7.9253 6.74614C7.91778 6.80443 7.91025 6.86273 7.90085 6.92103C7.90273 6.90599 7.90649 6.89094 7.91402 6.8759C7.89145 6.92856 7.86888 6.98121 7.84819 7.03387C7.85384 7.01882 7.86136 7.00566 7.87076 6.99438C7.83691 7.03951 7.80306 7.08276 7.76733 7.1279C7.77673 7.11662 7.78802 7.10533 7.7993 7.09593C7.75416 7.12978 7.71091 7.16363 7.66578 7.19936C7.67706 7.18996 7.69022 7.18244 7.70527 7.1768C7.65261 7.19936 7.59995 7.22193 7.5473 7.24262C7.56234 7.23697 7.57739 7.23321 7.59243 7.22945C7.53413 7.23697 7.47583 7.2445 7.41754 7.2539C7.70339 7.23509 7.99488 7.25202 8.28073 7.25202C8.73208 7.25202 9.18154 7.25202 9.63289 7.25202C9.74008 7.25202 9.84916 7.24638 9.95636 7.2539C9.89806 7.24638 9.83976 7.23885 9.78146 7.22945C9.7965 7.23133 9.81155 7.23509 9.82659 7.24262C9.77394 7.22005 9.72128 7.19748 9.66862 7.1768C9.68367 7.18244 9.69683 7.18996 9.70811 7.19936C9.66298 7.16551 9.61973 7.13166 9.57459 7.09593C9.58588 7.10533 9.59716 7.11662 9.60656 7.1279C9.57271 7.08276 9.53886 7.03951 9.50313 6.99438C9.51253 7.00566 9.52005 7.01882 9.5257 7.03387C9.50313 6.98121 9.48056 6.92856 9.45988 6.8759C9.46552 6.89094 9.46928 6.90599 9.47304 6.92103C9.46552 6.86273 9.45799 6.80443 9.44859 6.74614C9.46928 7.04891 9.45047 7.35733 9.45047 7.66011C9.45047 8.01555 9.75137 8.31832 10.1087 8.31832C10.5017 8.31832 10.8929 8.31832 11.2859 8.31832C11.9893 8.31832 12.6926 8.31832 13.3979 8.31832C13.8868 8.31832 14.3777 8.34089 14.8629 8.26943C15.4402 8.18292 15.9837 7.88766 16.4106 7.4965C16.8375 7.10345 17.1553 6.56184 17.287 5.99765C17.3697 5.64222 17.3735 5.28867 17.3735 4.92759C17.3735 4.60789 17.3735 4.28818 17.3735 3.97036C17.3735 3.94779 17.3735 3.92711 17.3735 3.90454C17.3735 3.56039 17.0707 3.23128 16.7153 3.24633C16.3579 3.26137 16.057 3.53406 16.057 3.90266Z" fill="#B7BDCD"/>
<path d="M11.4534 2.64497C10.8272 2.64497 10.2009 2.64497 9.57471 2.64497C8.58551 2.64497 7.59443 2.64497 6.60523 2.64497C6.37767 2.64497 6.15012 2.64497 5.92257 2.64497C6.1426 2.865 6.36075 3.08315 6.58078 3.30318C6.58078 2.6713 6.58078 2.03753 6.58078 1.40565C6.58078 1.30222 6.57326 1.19314 6.58642 1.09159C6.5789 1.14989 6.57138 1.20819 6.56197 1.26648C6.5695 1.22511 6.58078 1.18562 6.59582 1.14613C6.57326 1.19878 6.55069 1.25144 6.53 1.3041C6.54693 1.26648 6.56762 1.23263 6.59206 1.19878C6.55821 1.24392 6.52436 1.28717 6.48863 1.33231C6.51872 1.29281 6.55257 1.25896 6.59206 1.22887C6.54693 1.26272 6.50367 1.29657 6.45854 1.33231C6.49239 1.30786 6.52624 1.28905 6.56385 1.27025C6.5112 1.29281 6.45854 1.31538 6.40588 1.33607C6.44538 1.32102 6.48487 1.30974 6.52624 1.30222C6.46794 1.30974 6.40964 1.31726 6.35135 1.32666C6.51684 1.30598 6.69362 1.32102 6.86099 1.32102C7.22019 1.32102 7.57938 1.32102 7.94046 1.32102C8.76416 1.32102 9.58787 1.32102 10.4097 1.32102C10.6109 1.32102 10.8215 1.30222 11.0209 1.32666C10.9626 1.31914 10.9043 1.31162 10.846 1.30222C10.8874 1.30974 10.9269 1.32102 10.9664 1.33607C10.9137 1.3135 10.861 1.29093 10.8084 1.27025C10.846 1.28717 10.8798 1.30786 10.9137 1.33231C10.8686 1.29845 10.8253 1.2646 10.7802 1.22887C10.8197 1.25896 10.8535 1.29281 10.8836 1.33231C10.8498 1.28717 10.8159 1.24392 10.7802 1.19878C10.8046 1.23263 10.8234 1.26648 10.8422 1.3041C10.8197 1.25144 10.7971 1.19878 10.7764 1.14613C10.7915 1.18562 10.8027 1.22511 10.8103 1.26648C10.8027 1.20819 10.7952 1.14989 10.7858 1.09159C10.7971 1.1781 10.7915 1.26648 10.7915 1.35299C10.7915 1.52225 10.7915 1.68962 10.7915 1.85888C10.7915 2.24816 10.7915 2.63745 10.7915 3.02673C10.7915 3.11888 10.7915 3.21103 10.7915 3.30318C10.7915 3.64733 11.0942 3.97644 11.4497 3.9614C11.807 3.94635 12.1079 3.67178 12.1079 3.30318C12.1079 2.61488 12.1079 1.92846 12.1079 1.24016C12.1079 0.905408 12.0082 0.583824 11.7656 0.343106C11.5362 0.113672 11.2259 0.00271643 10.9062 0.000835826C10.6598 0.000835826 10.4153 0.000835826 10.169 0.000835826C9.27757 0.000835826 8.38428 0.000835826 7.49287 0.000835826C7.18445 0.000835826 6.87415 0.000835826 6.56573 0.000835826C6.51872 0.000835826 6.4717 -0.00104478 6.42657 0.000835826C5.7834 0.0158807 5.27564 0.523645 5.26059 1.16681C5.24555 1.85323 5.26059 2.54154 5.26059 3.22984C5.26059 3.25429 5.26059 3.27873 5.26059 3.30318C5.26059 3.65862 5.56149 3.9614 5.91881 3.9614C6.54505 3.9614 7.17129 3.9614 7.79753 3.9614C8.78673 3.9614 9.77781 3.9614 10.767 3.9614C10.9946 3.9614 11.2221 3.9614 11.4497 3.9614C11.7938 3.9614 12.1229 3.65862 12.1079 3.30318C12.0947 2.94775 11.822 2.64497 11.4534 2.64497Z" fill="#B7BDCD"/>
</svg>
