<svg width="19" height="20" viewBox="0 0 19 20" fill="none" xmlns="http://www.w3.org/2000/svg">
<path fill-rule="evenodd" clip-rule="evenodd" d="M4.04462 8.31297V6.06365C4.04462 2.95749 6.56266 0.439453 9.66882 0.439453C12.775 0.439453 15.293 2.95749 15.293 6.06365V8.31297H16.4177C17.6599 8.31297 18.667 9.32002 18.667 10.5623V17.3111C18.6676 18.5523 17.661 19.5599 16.4188 19.5605L2.91631 19.5605C1.6744 19.5605 0.667495 18.554 0.666992 17.3121V10.5632C0.667599 9.31984 1.67514 8.31328 2.91741 8.31388L4.04462 8.31297ZM9.66882 2.68879C7.80341 2.68879 6.29119 4.201 6.29119 6.06641V8.31573H13.0401V6.06367C13.0386 4.20089 11.5291 2.69087 9.66621 2.68879L9.66882 2.68879Z" fill="#C1C7D0"/>
</svg>
